<?xml version="1.0" encoding="UTF-8"?>
<!DOCTYPE svg PUBLIC "-//W3C//DTD SVG 1.1//EN" "http://www.w3.org/Graphics/SVG/1.1/DTD/svg11.dtd">
<!-- Creator: CorelDRAW 2018 (64-Bit Evaluation Version) -->
<svg xmlns="http://www.w3.org/2000/svg" xml:space="preserve" width="34.3885mm" height="33.2326mm" version="1.1" style="shape-rendering:geometricPrecision; text-rendering:geometricPrecision; image-rendering:optimizeQuality; fill-rule:evenodd; clip-rule:evenodd"
viewBox="0 0 26224 25342"
 xmlns:xlink="http://www.w3.org/1999/xlink">
 <defs>
  <style type="text/css">
   <![CDATA[
    .fil0 {fill:#21EBFF}
   ]]>
  </style>
 </defs>
 <g id="Layer_x0020_1">
  <metadata id="CorelCorpID_0Corel-Layer"/>
  <path class="fil0" d="M1890 13401l140 493c712,2501 1249,5096 2151,7536 300,811 775,1547 1386,2158 1121,1121 2630,1754 4217,1754l6713 0c1587,0 3096,-632 4217,-1754 673,-673 1180,-1498 1471,-2405 775,-2415 1452,-4860 2218,-7278l160 -504 -22673 0zm513 387l21631 0c-765,2414 -1452,4888 -2218,7277 -275,857 -753,1626 -1376,2249 -1012,1012 -2408,1640 -3943,1640l-6713 0c-1535,0 -2931,-628 -3943,-1640 -567,-567 -1013,-1254 -1296,-2019 -847,-2289 -1465,-5128 -2142,-7507zm-2403 -2049c0,915 747,1662 1662,1662l22900 0c915,0 1662,-747 1662,-1662 0,-915 -747,-1662 -1662,-1662l-22900 0c-915,0 -1662,747 -1662,1662zm1662 1274c-701,0 -1274,-574 -1274,-1274 0,-701 573,-1274 1274,-1274l22900 0c701,0 1274,574 1274,1274 0,701 -573,1274 -1274,1274l-22900 0zm5708 3103l0 4028c0,208 170,378 378,378l1570 0c208,0 378,-170 378,-378l0 -4028c0,-208 -170,-378 -378,-378l-1570 0c-208,0 -378,170 -378,378zm387 4019l0 -4009 1551 0 0 4009 -1551 0zm4192 -4019l0 4028c0,208 170,378 378,378l1570 0c208,0 378,-170 378,-378l0 -4028c0,-208 -170,-378 -378,-378l-1570 0c-208,0 -378,170 -378,378zm387 4019l0 -4009 1551 0 0 4009 -1551 0zm4192 -4019l0 4028c0,208 170,378 378,378l1570 0c208,0 378,-170 378,-378l0 -4028c0,-208 -170,-378 -378,-378l-1570 0c-208,0 -378,170 -378,378zm387 4019l0 -4009 1551 0 0 4009 -1551 0zm2879 -18372l0 8314 1384 0 0 -2061 0 -6 0 -6211c0,-101 40,-197 112,-268 72,-72 167,-112 268,-112 101,0 197,40 268,112 71,71 112,167 112,268l0 8278 1384 0 0 -8314c0,-469 -187,-915 -518,-1246 -331,-331 -777,-518 -1246,-518 -469,0 -915,187 -1246,518 -331,331 -518,777 -518,1246zm387 6244l0 -6244c0,-378 155,-723 404,-972 250,-250 594,-404 972,-404 379,0 723,155 972,404 250,250 404,594 404,972l0 6244 0 236 0 1446 -609 0 0 -1682 0 -6 0 -6203c0,-211 -86,-403 -225,-542 -139,-139 -331,-225 -542,-225 -211,0 -403,86 -542,225 -139,139 -225,331 -225,542l0 6203 0 6 0 1682 -609 0 0 -1446 0 -236zm-16837 1682l0 -1446 0 -236 0 -6244c0,-378 155,-723 404,-972 250,-250 594,-404 972,-404 378,0 723,155 972,404 250,250 404,594 404,972l0 6244 0 236 0 1446 -609 0 0 -1682 0 -6 0 -6203c0,-211 -86,-403 -225,-542 -139,-139 -331,-225 -542,-225 -211,0 -403,86 -542,225 -139,139 -225,331 -225,542l0 6203 0 6 0 1682 -609 0zm996 387l0 -8278c0,-101 40,-197 112,-268 71,-71 167,-112 268,-112 101,0 197,40 268,112 71,71 112,167 112,268l0 8278 1384 0 0 -8314c0,-469 -187,-915 -518,-1246 -331,-331 -777,-518 -1246,-518 -469,0 -915,187 -1246,518 -331,331 -518,777 -518,1246l0 8314 1384 0z"/>
 </g>
</svg>
