<?xml version="1.0" encoding="UTF-8"?>
<!DOCTYPE svg PUBLIC "-//W3C//DTD SVG 1.1//EN" "http://www.w3.org/Graphics/SVG/1.1/DTD/svg11.dtd">
<!-- Creator: CorelDRAW 2018 (64-Bit Evaluation Version) -->
<svg xmlns="http://www.w3.org/2000/svg" xml:space="preserve" width="127.125mm" height="122.823mm" version="1.1" style="shape-rendering:geometricPrecision; text-rendering:geometricPrecision; image-rendering:optimizeQuality; fill-rule:evenodd; clip-rule:evenodd"
viewBox="0 0 808495 781138"
 xmlns:xlink="http://www.w3.org/1999/xlink">
 <defs>
  <style type="text/css">
   <![CDATA[
    .str0 {stroke:#66FCF1;stroke-width:9540;stroke-miterlimit:22.9256}
    .fil0 {fill:none}
   ]]>
  </style>
 </defs>
 <g id="Layer_x0020_1">
  <metadata id="CorelCorpID_0Corel-Layer"/>
  <path class="fil0 str0" d="M44779 321307l718937 0c22005,0 40009,18004 40009,40010l0 0c0,22005 -18004,40009 -40009,40009l-718937 0c-22005,0 -40009,-18004 -40009,-40009l0 0c0,-22006 18004,-40010 40009,-40010zm191051 165579l49285 0c6526,0 11864,5338 11864,11864l0 126460c0,6526 -5338,11864 -11864,11864l-49285 0c-6526,0 -11864,-5338 -11864,-11864l0 -126460c0,-6526 5338,-11864 11864,-11864zm-70809 -242863l4 0 0 52807 19123 0 0 -45402 0 -7404 0 -196037c0,-11883 -4863,-22687 -12696,-30520 -7833,-7833 -18638,-12696 -30520,-12696 -11883,0 -22688,4863 -30521,12696 -7833,7833 -12696,18638 -12696,30520l0 196037 0 7404 0 45402 19123 0 0 -52807 8 0 -1 -174 0 -194741c0,-6623 2711,-12647 7075,-17011 4365,-4364 10388,-7074 17013,-7074 6626,0 12649,2711 17014,7074 4365,4364 7075,10388 7075,17011l0 194741 -1 174zm528502 0l4 0 0 52807 19123 0 0 -45402 0 -7404 0 -196037c0,-11883 -4863,-22687 -12696,-30520 -7833,-7833 -18638,-12696 -30520,-12696 -11883,0 -22688,4863 -30521,12696 -7833,7833 -12696,18638 -12696,30520l0 196037 0 7404 0 45402 19123 0 0 -52807 8 0 -1 -174 0 -194741c0,-6623 2711,-12647 7075,-17011 4365,-4364 10388,-7074 17013,-7074 6626,0 12649,2711 17014,7074 4365,4364 7075,10388 7075,17011l0 194741 -1 174zm-313919 242863l49285 0c6526,0 11864,5338 11864,11864l0 126460c0,6526 -5338,11864 -11864,11864l-49285 0c-6526,0 -11864,-5338 -11864,-11864l0 -126460c0,-6526 5338,-11864 11864,-11864zm143775 0l49285 0c6526,0 11864,5338 11864,11864l0 126460c0,6526 -5338,11864 -11864,11864l-49285 0c-6526,0 -11864,-5338 -11864,-11864l0 -126460c0,-6526 5338,-11864 11864,-11864zm-388055 174604c8885,24010 22899,45590 40696,63387 31770,31771 75591,51491 123791,51491l210734 0c48200,0 92021,-19720 123791,-51491 19565,-19565 34559,-43701 43191,-70614 24054,-75010 45614,-152664 69634,-228459l-679087 0c21274,74699 40658,163818 67250,235686z"/>
 </g>
</svg>
