<?xml version="1.0" encoding="UTF-8"?>
<!DOCTYPE svg PUBLIC "-//W3C//DTD SVG 1.1//EN" "http://www.w3.org/Graphics/SVG/1.1/DTD/svg11.dtd">
<!-- Creator: CorelDRAW 2018 (64-Bit Evaluation Version) -->
<svg xmlns="http://www.w3.org/2000/svg" xml:space="preserve" width="29.5766mm" height="4.2738mm" version="1.1" style="shape-rendering:geometricPrecision; text-rendering:geometricPrecision; image-rendering:optimizeQuality; fill-rule:evenodd; clip-rule:evenodd"
viewBox="0 0 19096 2759"
 xmlns:xlink="http://www.w3.org/1999/xlink">
 <defs>
  <style type="text/css">
   <![CDATA[
    .fil0 {fill:#10737D}
    .fil1 {fill:#21EBFF;fill-rule:nonzero}
   ]]>
  </style>
 </defs>
 <g id="Layer_x0020_1">
  <metadata id="CorelCorpID_0Corel-Layer"/>
  <path class="fil0" d="M17269 986l-161 160 -858 0 -160 -160 -8 -8 -394 -398 -2654 0 -192 192 -397 0 -1070 1070 -818 0 127 -128 976 -942 -113 0 -661 661 -944 0 0 -21 935 0 661 -661 0 0 0 0 144 0 225 -217 0 -43 3809 0 40 40 378 378 2120 0c6,-107 52,-203 123,-274 40,-40 89,-72 142,-94l0 53c-40,19 -77,44 -108,75 -62,62 -102,146 -108,239l30 0c3,-40 13,-79 28,-115l1 -2 0 0 1 -2 1 -2 0 0 1 -1 1 -2 0 -1 1 -1 1 -2 0 -1 1 -1 1 -2 0 -1 0 -1 1 -2 1 -1 0 -1 1 -2 1 -1 0 0 1 -2 1 -1 0 0 1 -2 1 -2 0 0 1 -2 1 -2 1 -2 1 -2 0 0 1 -2 1 -2 0 0 1 -1 1 -2 0 -1 1 -1 1 -2 0 -1 1 -1 1 -2 0 -1 1 -1 1 -2 1 -1 1 -1 1 -2 1 -1 0 -1 1 -2 1 -1 0 0 1 -2 1 -1 0 0 1 -2 1 -1 0 0 1 -2 1 -2 0 0 1 -1 1 -2 0 0 1 -1 1 -2 0 0 1 -1 1 -1 0 -1 1 -1 1 -1 1 -1 1 -1 1 -1 1 -1 1 -1 1 -1 1 -1 1 -1 1 -1 1 -1 0 0 1 -1 1 -1 0 0 1 -1 1 -1 0 0 1 -1 1 -1 2 -2 1 -1 1 -1 2 -2 0 0 2 -2 1 -1 1 -1 2 -2 0 0 2 -2 1 -1 1 -1 2 -2 0 0 2 -1 2 -1 1 0 2 -2 1 0 1 -1 2 -1 0 0 2 -2 1 -1 1 -1 2 -1 0 0 2 -2 1 -1 1 -1 2 -2 0 0 2 -2 1 -1 1 -1 2 -2 0 0 7 -5 2 -1 1 -1 1 -1 2 -1 0 0 2 -1 2 -1 1 0 2 -1 1 0 2 -1 2 -1 0 0 2 -1 1 0 4 -2 0 0 2 -1 1 -1 1 -1 2 -1 0 0 2 -1 1 -1 1 -1 2 -1 0 0 2 -1 1 -1 1 0 2 -1 0 0 2 -1 2 -1 1 0 2 -1 1 0 2 -1 2 -1 1 0 3 -1 1 0 2 -1 2 -1 1 0 3 -1 1 0 2 -1 2 -1 0 0 3 -1 1 0 2 -1 2 -1 0 0 3 -1 1 0 1 0 3 -1 0 0 3 -1c30,-9 62,-13 95,-13 94,0 180,38 242,100 30,30 54,64 71,103l-55 0c-14,-25 -31,-48 -51,-68 -53,-53 -126,-86 -207,-86 -33,0 -65,6 -95,16l-2 1 0 0 -2 1 -2 1 0 0 -2 1 -1 0 -1 0 -2 1 0 0 -1 1 -2 1 0 0 -2 1 -1 1 -1 0 -2 1 -1 0 -1 1 -2 1 0 0 -2 1 -1 1 -1 0 -2 1 -1 0 -1 1 -2 1 0 0 -2 1 -2 1 0 0 -2 1 -1 1 -1 0 -2 1 0 0 -1 1 -2 1 0 0 -2 1 -1 1 -1 0 -2 1 -1 0 -1 1 -2 1 0 0 -2 1 -1 1 0 0 -2 1 -1 1 -1 1 -2 1 0 0 -1 1 -1 1 0 0 -2 1 -1 1 -1 1 -2 1 0 0 -1 1 -2 1 0 0 -2 1 -1 1 -1 0 -2 1 -1 0 -1 1 -2 1 -2 1 -1 1 0 0 -2 1 -1 1 -1 1 -2 1 0 0 -1 1 -1 1 0 0 -2 1 -1 1 -1 1 -2 1 0 0 -1 1 -1 1 0 0 -1 1 -1 1 -1 1 -1 1 0 0 -1 1 -1 1 -1 1 -1 1 -1 1 0 0 -1 1 -1 1 0 0 -1 1 -1 1 -1 1 0 0 -1 1 -1 1 -1 1 0 0 -1 1 -1 1 0 0 -1 1 -1 1 -1 1 0 0 -1 1 -1 1 0 0 -1 1 -1 1 -1 1 0 0 -1 1 -1 1 -1 1 0 0 -1 1 -1 1 0 0 -1 1 -1 1 -1 1 0 0 -1 1 -1 1 0 1 0 0 -1 1 -1 1 0 0 -1 1 -1 1 -1 1 0 0 -1 1 -1 2 -1 1 -1 1 0 0 -1 1 -1 1 -1 1 -1 1 -1 1 0 0 0 1 -1 1 -1 1 -1 1 -1 1 0 1 0 0 -1 1 -1 1 0 0 0 1 -1 1 -1 1 0 0 -1 1 -1 1 0 1 0 1 -1 1 -1 1 0 0 -1 1c-19,35 -30,73 -34,115l231 0c12,-19 34,-31 58,-31 38,0 70,31 70,70 0,38 -31,70 -70,70 -24,0 -46,-12 -58,-31l-227 0c11,60 40,113 81,154 31,31 69,55 112,70l0 52c-56,-16 -106,-46 -147,-87 -50,-50 -85,-115 -96,-188l-30 0c9,65 35,124 74,174l-60 0c-33,-51 -55,-110 -63,-174l-988 0zm1565 -443c52,21 99,53 138,92 28,28 52,60 71,95l-57 0c-14,-22 -31,-42 -49,-60 -30,-30 -65,-55 -104,-73l0 -54zm-159 810c-76,0 -148,-20 -210,-56l0 -58c60,41 132,65 210,65l0 49zm421 -421c0,116 -47,221 -123,297 -39,39 -86,71 -138,92l0 -54c39,-18 74,-43 104,-73 67,-67 109,-160 109,-263l49 0zm-5765 -506l1786 0 0 -49 681 1 91 91 404 404 -158 0 -404 -404 -2442 0 43 -43zm-326 154l-367 0 -171 171 367 0 171 -171z"/>
  <path class="fil1" d="M8217 1138c52,21 99,53 138,92 28,28 52,60 71,95l-57 0c-14,-22 -31,-42 -49,-60 -30,-30 -65,-55 -104,-73l0 -54zm-254 718c-56,-16 -106,-46 -147,-87 -54,-54 -90,-125 -98,-205l-30 0c7,71 34,137 76,190l-60 0c-36,-56 -59,-121 -65,-190l-838 0 -124 126 -2152 0 -124 -126 -1568 0 -831 -819 -2001 0 0 -125 1190 0 484 -491 34 0 1032 0 121 -123 0 -7 7 0 1198 0 4569 0 130 130 189 0 653 653 15 15 271 271 382 382 271 271 724 0 611 611 2390 0c2,-114 48,-217 123,-291 40,-40 89,-72 142,-94l0 53c-40,19 -77,44 -108,75 -66,66 -107,157 -109,257l30 0c1,-47 11,-92 29,-132l1 -2 0 0 1 -2 1 -2 0 0 1 -1 1 -2 0 -1 1 -1 1 -2 0 -1 1 -1 1 -2 0 -1 0 -1 1 -2 1 -1 0 -1 1 -2 1 -1 0 0 1 -2 1 -1 0 0 1 -2 1 -2 0 0 1 -2 1 -2 1 -2 1 -2 0 0 1 -2 1 -2 0 0 1 -1 1 -2 0 -1 1 -1 1 -2 0 -1 1 -1 1 -2 0 -1 1 -1 1 -2 1 -1 1 -1 1 -2 1 -1 0 -1 1 -2 1 -1 0 0 1 -2 1 -1 0 0 1 -2 1 -1 0 0 1 -2 1 -2 0 0 1 -1 1 -2 0 0 1 -1 1 -2 0 0 1 -1 1 -1 0 -1 1 -1 1 -1 1 -1 1 -1 1 -1 1 -1 1 -1 1 -1 1 -1 1 -1 1 -1 1 -1 0 0 1 -1 1 -1 0 0 1 -1 1 -1 0 0 1 -1 1 -1 2 -2 1 -1 1 -1 2 -2 0 0 2 -2 1 -1 1 -1 2 -2 0 0 2 -2 1 -1 1 -1 2 -2 0 0 2 -1 2 -1 1 0 2 -2 1 0 1 -1 2 -1 0 0 2 -2 1 -1 1 -1 2 -1 0 0 2 -2 1 -1 1 -1 2 -2 0 0 2 -2 1 -1 1 -1 2 -2 0 0 7 -5 2 -1 1 -1 1 -1 2 -1 0 0 2 -1 2 -1 1 0 2 -1 1 0 2 -1 2 -1 0 0 2 -1 1 0 4 -2 0 0 2 -1 1 -1 1 -1 2 -1 0 0 2 -1 1 -1 1 -1 2 -1 0 0 2 -1 1 -1 1 0 2 -1 0 0 2 -1 2 -1 1 0 2 -1 1 0 2 -1 2 -1 1 0 3 -1 1 0 2 -1 2 -1 1 0 3 -1 1 0 2 -1 2 -1 0 0 3 -1 1 0 2 -1 2 -1 0 0 3 -1 1 0 1 0 3 -1 0 0 3 -1c30,-9 62,-13 95,-13 94,0 180,38 242,100 30,30 54,64 71,103l-55 0c-14,-25 -31,-48 -51,-68 -53,-53 -126,-86 -207,-86 -33,0 -65,6 -95,16l-2 1 0 0 -2 1 -2 1 0 0 -2 1 -1 0 -1 0 -2 1 0 0 -1 1 -2 1 0 0 -2 1 -1 1 -1 0 -2 1 -1 0 -1 1 -2 1 0 0 -2 1 -1 1 -1 0 -2 1 -1 0 -1 1 -2 1 0 0 -2 1 -2 1 0 0 -2 1 -1 1 -1 0 -2 1 0 0 -1 1 -2 1 0 0 -2 1 -1 1 -1 0 -2 1 -1 0 -1 1 -2 1 0 0 -2 1 -1 1 0 0 -2 1 -1 1 -1 1 -2 1 0 0 -1 1 -1 1 0 0 -2 1 -1 1 -1 1 -2 1 0 0 -1 1 -2 1 0 0 -2 1 -1 1 -1 0 -2 1 -1 0 -1 1 -2 1 -2 1 -1 1 0 0 -2 1 -1 1 -1 1 -2 1 0 0 -1 1 -1 1 0 0 -2 1 -1 1 -1 1 -2 1 0 0 -1 1 -1 1 0 0 -1 1 -1 1 -1 1 -1 1 0 0 -1 1 -1 1 -1 1 -1 1 -1 1 0 0 -1 1 -1 1 0 0 -1 1 -1 1 -1 1 0 0 -1 1 -1 1 -1 1 0 0 -1 1 -1 1 0 0 -1 1 -1 1 -1 1 0 0 -1 1 -1 1 0 0 -1 1 -1 1 -1 1 0 0 -1 1 -1 1 -1 1 0 0 -1 1 -1 1 0 0 -1 1 -1 1 -1 1 0 0 -1 1 -1 1 0 1 0 0 -1 1 -1 1 0 0 -1 1 -1 1 -1 1 0 0 -1 1 -1 2 -1 1 -1 1 0 0 -1 1 -1 1 -1 1 -1 1 -1 1 0 0 0 1 -1 1 -1 1 -1 1 -1 1 0 1 0 0 -1 1 -1 1 0 0 0 1 -1 1 -1 1 0 0 -1 1 -1 1 0 1 0 1 -1 1 -1 1 0 0 -1 1c-21,39 -34,84 -35,132l223 0c9,-28 35,-48 66,-48 38,0 70,31 70,70 0,38 -31,70 -70,70 -31,0 -57,-20 -66,-48l-221 0c8,66 39,125 83,170 31,31 69,55 112,70l0 52c-56,-16 -106,-46 -147,-87 -54,-54 -90,-125 -98,-205l-30 0c7,71 34,136 76,190l-60 0c-36,-56 -59,-121 -65,-190l-2349 0 -177 0 -372 0 -353 -358 -545 0 -1844 -1844 -4733 0 -556 573 -477 0 0 0 -163 165 602 611 1053 0 2485 0 794 0c2,-114 48,-217 123,-291 40,-40 89,-72 142,-94l0 53c-40,19 -77,44 -108,75 -66,66 -107,156 -109,257l30 0c1,-47 11,-92 29,-132l1 -2 0 0 1 -2 1 -2 0 0 1 -1 1 -2 0 -1 1 -1 1 -2 0 -1 1 -1 1 -2 0 -1 0 -1 1 -2 1 -1 0 -1 1 -2 1 -1 0 0 1 -2 1 -1 0 0 1 -2 1 -2 0 0 1 -2 1 -2 1 -2 1 -2 0 0 1 -2 1 -2 0 0 1 -1 1 -2 0 -1 1 -1 1 -2 0 -1 1 -1 1 -2 0 -1 1 -1 1 -2 1 -1 1 -1 1 -2 1 -1 0 -1 1 -2 1 -1 0 0 1 -2 1 -1 0 0 1 -2 1 -1 0 0 1 -2 1 -2 0 0 1 -1 1 -2 0 0 1 -1 1 -2 0 0 1 -1 1 -1 0 -1 1 -1 1 -1 1 -1 1 -1 1 -1 1 -1 1 -1 1 -1 1 -1 1 -1 1 -1 1 -1 0 0 1 -1 1 -1 0 0 1 -1 1 -1 0 0 1 -1 1 -1 2 -2 1 -1 1 -1 2 -2 0 0 2 -2 1 -1 1 -1 2 -2 0 0 2 -2 1 -1 1 -1 2 -2 0 0 2 -1 2 -1 1 0 2 -2 1 0 1 -1 2 -1 0 0 2 -2 1 -1 1 -1 2 -1 0 0 2 -2 1 -1 1 -1 2 -2 0 0 2 -2 1 -1 1 -1 2 -2 0 0 7 -5 2 -1 1 -1 1 -1 2 -1 0 0 2 -1 2 -1 1 0 2 -1 1 0 2 -1 2 -1 0 0 2 -1 1 0 4 -2 0 0 2 -1 1 -1 1 -1 2 -1 0 0 2 -1 1 -1 1 -1 2 -1 0 0 2 -1 1 -1 1 0 2 -1 0 0 2 -1 2 -1 1 0 2 -1 1 0 2 -1 2 -1 1 0 3 -1 1 0 2 -1 2 -1 1 0 3 -1 1 0 2 -1 2 -1 0 0 3 -1 1 0 2 -1 2 -1 0 0 3 -1 1 0 1 0 3 -1 0 0 3 -1c30,-9 62,-13 95,-13 94,0 180,38 242,100 30,30 54,64 71,103l-55 0c-14,-25 -31,-48 -51,-68 -53,-53 -126,-86 -207,-86 -33,0 -65,6 -95,16l-2 1 0 0 -2 1 -2 1 0 0 -2 1 -1 0 -1 0 -2 1 0 0 -1 1 -2 1 0 0 -2 1 -1 1 -1 0 -2 1 -1 0 -1 1 -2 1 0 0 -2 1 -1 1 -1 0 -2 1 -1 0 -1 1 -2 1 0 0 -2 1 -2 1 0 0 -2 1 -1 1 -1 0 -2 1 0 0 -1 1 -2 1 0 0 -2 1 -1 1 -1 0 -2 1 -1 0 -1 1 -2 1 0 0 -2 1 -1 1 0 0 -2 1 -1 1 -1 1 -2 1 0 0 -1 1 -1 1 0 0 -2 1 -1 1 -1 1 -2 1 0 0 -1 1 -2 1 0 0 -2 1 -1 1 -1 0 -2 1 -1 0 -1 1 -2 1 -2 1 -1 1 0 0 -2 1 -1 1 -1 1 -2 1 0 0 -1 1 -1 1 0 0 -2 1 -1 1 -1 1 -2 1 0 0 -1 1 -1 1 0 0 -1 1 -1 1 -1 1 -1 1 0 0 -1 1 -1 1 -1 1 -1 1 -1 1 0 0 -1 1 -1 1 0 0 -1 1 -1 1 -1 1 0 0 -1 1 -1 1 -1 1 0 0 -1 1 -1 1 0 0 -1 1 -1 1 -1 1 0 0 -1 1 -1 1 0 0 -1 1 -1 1 -1 1 0 0 -1 1 -1 1 -1 1 0 0 -1 1 -1 1 0 0 -1 1 -1 1 -1 1 0 0 -1 1 -1 1 0 1 0 0 -1 1 -1 1 0 0 -1 1 -1 1 -1 1 0 0 -1 1 -1 2 -1 1 -1 1 0 0 -1 1 -1 1 -1 1 -1 1 -1 1 0 0 0 1 -1 1 -1 1 -1 1 -1 1 0 1 0 0 -1 1 -1 1 0 0 0 1 -1 1 -1 1 0 0 -1 1 -1 1 0 1 0 1 -1 1 -1 1 0 0 -1 1c-21,39 -34,84 -35,132l223 0c9,-28 35,-48 66,-48 38,0 69,31 69,69 0,38 -31,69 -69,69 -31,0 -57,-20 -66,-48l-221 0c8,66 39,126 83,170 31,31 69,55 112,70l0 52zm95 92c-76,0 -148,-20 -210,-56l0 -58c60,41 132,65 210,65l0 49zm421 -421c0,116 -47,221 -123,297 -39,39 -86,71 -138,92l0 -54c39,-18 74,-43 104,-73 67,-67 109,-160 109,-263l49 0zm6371 422c52,21 99,53 138,92 28,28 52,60 71,95l-57 0c-14,-22 -31,-42 -49,-60 -30,-30 -65,-55 -104,-73l0 -54zm-159 810c-76,0 -148,-20 -210,-56l0 -58c60,41 132,65 210,65l0 49zm421 -421c0,116 -47,221 -123,297 -39,39 -86,71 -138,92l0 -54c39,-18 74,-43 104,-73 67,-67 109,-160 109,-263l49 0zm-6545 -2230l-4607 0 -21 21 4649 0 -21 -21zm1947 1613l-256 -256 -382 -382 -271 -271 -15 -15 -625 -625 -159 0 1549 1549 159 0zm-9290 -1100l1032 0 442 -448 -1032 0 -442 448zm82 153l677 0 368 374 -462 0 -162 -165 -214 -1 -207 -208z"/>
 </g>
</svg>
