<?xml version="1.0" encoding="UTF-8"?>
<!DOCTYPE svg PUBLIC "-//W3C//DTD SVG 1.1//EN" "http://www.w3.org/Graphics/SVG/1.1/DTD/svg11.dtd">
<!-- Creator: CorelDRAW 2018 (64-Bit Evaluation Version) -->
<svg xmlns="http://www.w3.org/2000/svg" xml:space="preserve" width="29.5766mm" height="4.2738mm" version="1.1" style="shape-rendering:geometricPrecision; text-rendering:geometricPrecision; image-rendering:optimizeQuality; fill-rule:evenodd; clip-rule:evenodd"
viewBox="0 0 19085 2758"
 xmlns:xlink="http://www.w3.org/1999/xlink">
 <defs>
  <style type="text/css">
   <![CDATA[
    .fil0 {fill:#1ED4E6}
    .fil1 {fill:#21EBFF;fill-rule:nonzero}
   ]]>
  </style>
 </defs>
 <g id="Layer_x0020_1">
  <metadata id="CorelCorpID_0Corel-Layer"/>
  <path class="fil0" d="M17260 985l-161 160 -857 0 -160 -160 -8 -8 -394 -398 -2653 0 -192 192 -397 0 -1069 1069 -817 0 127 -128 976 -942 -113 0 -661 661 -944 0 0 -21 935 0 661 -661 0 0 0 0 144 0 225 -217 0 -43 3806 0 40 40 377 377 2119 0c6,-107 52,-203 123,-274 40,-40 89,-72 142,-94l0 53c-40,19 -77,44 -108,75 -62,62 -102,146 -108,239l30 0c3,-40 13,-79 28,-114l1 -2 0 0 1 -2 1 -2 0 0 1 -1 1 -2 0 -1 1 -1 1 -2 0 -1 1 -1 1 -2 0 -1 0 -1 1 -2 1 -1 0 -1 1 -2 1 -1 0 0 1 -2 1 -1 0 0 1 -2 1 -2 0 0 1 -2 1 -2 1 -2 1 -2 0 0 1 -2 1 -2 0 0 1 -1 1 -2 0 -1 1 -1 1 -2 0 -1 1 -1 1 -2 0 -1 1 -1 1 -2 1 -1 1 -1 1 -2 1 -1 0 -1 1 -2 1 -1 0 0 1 -2 1 -1 0 0 1 -2 1 -1 0 0 1 -2 1 -2 0 0 1 -1 1 -2 0 0 1 -1 1 -2 0 0 1 -1 1 -1 0 -1 1 -1 1 -1 1 -1 1 -1 1 -1 1 -1 1 -1 1 -1 1 -1 1 -1 1 -1 1 -1 0 0 1 -1 1 -1 0 0 1 -1 1 -1 0 0 1 -1 1 -1 2 -2 1 -1 1 -1 2 -2 0 0 2 -2 1 -1 1 -1 2 -2 0 0 2 -2 1 -1 1 -1 2 -2 0 0 2 -1 2 -1 1 0 2 -2 1 0 1 -1 2 -1 0 0 2 -2 1 -1 1 -1 2 -1 0 0 2 -2 1 -1 1 -1 2 -2 0 0 2 -2 1 -1 1 -1 2 -2 0 0 7 -5 2 -1 1 -1 1 -1 2 -1 0 0 2 -1 2 -1 1 0 2 -1 1 0 2 -1 2 -1 0 0 2 -1 1 0 4 -2 0 0 2 -1 1 -1 1 -1 2 -1 0 0 2 -1 1 -1 1 -1 2 -1 0 0 2 -1 1 -1 1 0 2 -1 0 0 2 -1 2 -1 1 0 2 -1 1 0 2 -1 2 -1 1 0 3 -1 1 0 2 -1 2 -1 1 0 3 -1 1 0 2 -1 2 -1 0 0 3 -1 1 0 2 -1 2 -1 0 0 3 -1 1 0 1 0 3 -1 0 0 3 -1c30,-9 62,-13 95,-13 94,0 180,38 241,100 29,29 54,64 71,103l-55 0c-14,-25 -31,-48 -51,-68 -53,-53 -126,-86 -207,-86 -33,0 -65,6 -95,16l-2 1 0 0 -2 1 -2 1 0 0 -2 1 -1 0 -1 0 -2 1 0 0 -1 1 -2 1 0 0 -2 1 -1 1 -1 0 -2 1 -1 0 -1 1 -2 1 0 0 -2 1 -1 1 -1 0 -2 1 -1 0 -1 1 -2 1 0 0 -2 1 -2 1 0 0 -2 1 -1 1 -1 0 -2 1 0 0 -1 1 -2 1 0 0 -2 1 -1 1 -1 0 -2 1 -1 0 -1 1 -2 1 0 0 -2 1 -1 1 0 0 -2 1 -1 1 -1 1 -2 1 0 0 -1 1 -1 1 0 0 -2 1 -1 1 -1 1 -2 1 0 0 -1 1 -2 1 0 0 -2 1 -1 1 -1 0 -2 1 -1 0 -1 1 -2 1 -2 1 -1 1 0 0 -2 1 -1 1 -1 1 -2 1 0 0 -1 1 -1 1 0 0 -2 1 -1 1 -1 1 -2 1 0 0 -1 1 -1 1 0 0 -1 1 -1 1 -1 1 -1 1 0 0 -1 1 -1 1 -1 1 -1 1 -1 1 0 0 -1 1 -1 1 0 0 -1 1 -1 1 -1 1 0 0 -1 1 -1 1 -1 1 0 0 -1 1 -1 1 0 0 -1 1 -1 1 -1 1 0 0 -1 1 -1 1 0 0 -1 1 -1 1 -1 1 0 0 -1 1 -1 1 -1 1 0 0 -1 1 -1 1 0 0 -1 1 -1 1 -1 1 0 0 -1 1 -1 1 0 1 0 0 -1 1 -1 1 0 0 -1 1 -1 1 -1 1 0 0 -1 1 -1 2 -1 1 -1 1 0 0 -1 1 -1 1 -1 1 -1 1 -1 1 0 0 0 1 -1 1 -1 1 -1 1 -1 1 0 1 0 0 -1 1 -1 1 0 0 0 1 -1 1 -1 1 0 0 -1 1 -1 1 0 1 0 1 -1 1 -1 1 0 0 -1 1c-19,35 -30,73 -34,114l231 0c12,-19 34,-31 58,-31 38,0 70,31 70,70 0,38 -31,70 -70,70 -24,0 -46,-12 -58,-31l-227 0c11,59 40,113 81,154 31,31 69,55 112,70l0 51c-56,-16 -106,-46 -147,-87 -50,-50 -84,-115 -96,-188l-30 0c9,65 35,124 73,174l-60 0c-33,-51 -55,-110 -63,-174l-988 0zm1564 -443c52,21 99,53 138,92 28,28 52,60 71,95l-57 0c-14,-22 -31,-42 -49,-60 -30,-30 -65,-55 -104,-73l0 -54zm-159 810c-76,0 -148,-20 -210,-56l0 -58c60,41 132,65 210,65l0 49zm420 -420c0,116 -47,221 -123,297 -39,39 -86,71 -138,92l0 -54c39,-18 74,-43 104,-73 67,-67 109,-160 109,-263l49 0zm-5762 -506l1785 0 0 -49 680 1 91 91 404 404 -158 0 -404 -404 -2440 0 43 -43zm-326 154l-367 0 -171 171 366 0 171 -171z"/>
  <path class="fil1" d="M8212 1137c52,21 99,53 138,92 28,28 52,60 71,95l-57 0c-14,-22 -31,-42 -49,-60 -30,-30 -65,-55 -104,-73l0 -54zm-254 718c-56,-16 -106,-46 -147,-87 -54,-54 -90,-125 -98,-205l-30 0c7,71 34,137 75,190l-60 0c-36,-56 -59,-121 -65,-190l-837 0 -124 126 -2151 0 -124 -126 -1567 0 -831 -818 -2000 0 0 -124 1189 0 484 -491 34 0 1031 0 121 -123 0 -7 7 0 1197 0 4566 0 130 130 189 0 653 653 15 15 271 271 382 382 271 271 724 0 611 611 2389 0c2,-114 48,-217 123,-291 40,-40 89,-72 142,-94l0 53c-40,19 -77,44 -108,75 -66,66 -107,156 -109,257l30 0c1,-47 11,-92 29,-132l1 -2 0 0 1 -2 1 -2 0 0 1 -1 1 -2 0 -1 1 -1 1 -2 0 -1 1 -1 1 -2 0 -1 0 -1 1 -2 1 -1 0 -1 1 -2 1 -1 0 0 1 -2 1 -1 0 0 1 -2 1 -2 0 0 1 -2 1 -2 1 -2 1 -2 0 0 1 -2 1 -2 0 0 1 -1 1 -2 0 -1 1 -1 1 -2 0 -1 1 -1 1 -2 0 -1 1 -1 1 -2 1 -1 1 -1 1 -2 1 -1 0 -1 1 -2 1 -1 0 0 1 -2 1 -1 0 0 1 -2 1 -1 0 0 1 -2 1 -2 0 0 1 -1 1 -2 0 0 1 -1 1 -2 0 0 1 -1 1 -1 0 -1 1 -1 1 -1 1 -1 1 -1 1 -1 1 -1 1 -1 1 -1 1 -1 1 -1 1 -1 1 -1 0 0 1 -1 1 -1 0 0 1 -1 1 -1 0 0 1 -1 1 -1 2 -2 1 -1 1 -1 2 -2 0 0 2 -2 1 -1 1 -1 2 -2 0 0 2 -2 1 -1 1 -1 2 -2 0 0 2 -1 2 -1 1 0 2 -2 1 0 1 -1 2 -1 0 0 2 -2 1 -1 1 -1 2 -1 0 0 2 -2 1 -1 1 -1 2 -2 0 0 2 -2 1 -1 1 -1 2 -2 0 0 7 -5 2 -1 1 -1 1 -1 2 -1 0 0 2 -1 2 -1 1 0 2 -1 1 0 2 -1 2 -1 0 0 2 -1 1 0 4 -2 0 0 2 -1 1 -1 1 -1 2 -1 0 0 2 -1 1 -1 1 -1 2 -1 0 0 2 -1 1 -1 1 0 2 -1 0 0 2 -1 2 -1 1 0 2 -1 1 0 2 -1 2 -1 1 0 3 -1 1 0 2 -1 2 -1 1 0 3 -1 1 0 2 -1 2 -1 0 0 3 -1 1 0 2 -1 2 -1 0 0 3 -1 1 0 1 0 3 -1 0 0 3 -1c30,-9 62,-13 95,-13 94,0 180,38 241,100 29,29 54,64 71,103l-55 0c-14,-25 -31,-48 -51,-68 -53,-53 -126,-86 -207,-86 -33,0 -65,6 -95,16l-2 1 0 0 -2 1 -2 1 0 0 -2 1 -1 0 -1 0 -2 1 0 0 -1 1 -2 1 0 0 -2 1 -1 1 -1 0 -2 1 -1 0 -1 1 -2 1 0 0 -2 1 -1 1 -1 0 -2 1 -1 0 -1 1 -2 1 0 0 -2 1 -2 1 0 0 -2 1 -1 1 -1 0 -2 1 0 0 -1 1 -2 1 0 0 -2 1 -1 1 -1 0 -2 1 -1 0 -1 1 -2 1 0 0 -2 1 -1 1 0 0 -2 1 -1 1 -1 1 -2 1 0 0 -1 1 -1 1 0 0 -2 1 -1 1 -1 1 -2 1 0 0 -1 1 -2 1 0 0 -2 1 -1 1 -1 0 -2 1 -1 0 -1 1 -2 1 -2 1 -1 1 0 0 -2 1 -1 1 -1 1 -2 1 0 0 -1 1 -1 1 0 0 -2 1 -1 1 -1 1 -2 1 0 0 -1 1 -1 1 0 0 -1 1 -1 1 -1 1 -1 1 0 0 -1 1 -1 1 -1 1 -1 1 -1 1 0 0 -1 1 -1 1 0 0 -1 1 -1 1 -1 1 0 0 -1 1 -1 1 -1 1 0 0 -1 1 -1 1 0 0 -1 1 -1 1 -1 1 0 0 -1 1 -1 1 0 0 -1 1 -1 1 -1 1 0 0 -1 1 -1 1 -1 1 0 0 -1 1 -1 1 0 0 -1 1 -1 1 -1 1 0 0 -1 1 -1 1 0 1 0 0 -1 1 -1 1 0 0 -1 1 -1 1 -1 1 0 0 -1 1 -1 2 -1 1 -1 1 0 0 -1 1 -1 1 -1 1 -1 1 -1 1 0 0 0 1 -1 1 -1 1 -1 1 -1 1 0 1 0 0 -1 1 -1 1 0 0 0 1 -1 1 -1 1 0 0 -1 1 -1 1 0 1 0 1 -1 1 -1 1 0 0 -1 1c-21,39 -34,84 -35,132l223 0c9,-28 35,-48 66,-48 38,0 70,31 70,70 0,38 -31,70 -70,70 -31,0 -57,-20 -66,-48l-221 0c8,66 39,125 83,170 31,31 69,55 112,70l0 51c-56,-16 -106,-46 -147,-87 -54,-54 -90,-125 -98,-205l-30 0c7,71 34,136 75,190l-60 0c-36,-56 -59,-120 -65,-190l-2348 0 -177 0 -372 0 -353 -358 -545 0 -1843 -1843 -4731 0 -556 573 -477 0 0 0 -162 165 602 610 1053 0 2484 0 794 0c2,-114 48,-216 123,-291 40,-40 89,-72 142,-94l0 53c-40,19 -77,44 -108,75 -66,66 -107,156 -109,256l30 0c1,-47 11,-92 29,-132l1 -2 0 0 1 -2 1 -2 0 0 1 -1 1 -2 0 -1 1 -1 1 -2 0 -1 1 -1 1 -2 0 -1 0 -1 1 -2 1 -1 0 -1 1 -2 1 -1 0 0 1 -2 1 -1 0 0 1 -2 1 -2 0 0 1 -2 1 -2 1 -2 1 -2 0 0 1 -2 1 -2 0 0 1 -1 1 -2 0 -1 1 -1 1 -2 0 -1 1 -1 1 -2 0 -1 1 -1 1 -2 1 -1 1 -1 1 -2 1 -1 0 -1 1 -2 1 -1 0 0 1 -2 1 -1 0 0 1 -2 1 -1 0 0 1 -2 1 -2 0 0 1 -1 1 -2 0 0 1 -1 1 -2 0 0 1 -1 1 -1 0 -1 1 -1 1 -1 1 -1 1 -1 1 -1 1 -1 1 -1 1 -1 1 -1 1 -1 1 -1 1 -1 0 0 1 -1 1 -1 0 0 1 -1 1 -1 0 0 1 -1 1 -1 2 -2 1 -1 1 -1 2 -2 0 0 2 -2 1 -1 1 -1 2 -2 0 0 2 -2 1 -1 1 -1 2 -2 0 0 2 -1 2 -1 1 0 2 -2 1 0 1 -1 2 -1 0 0 2 -2 1 -1 1 -1 2 -1 0 0 2 -2 1 -1 1 -1 2 -2 0 0 2 -2 1 -1 1 -1 2 -2 0 0 7 -5 2 -1 1 -1 1 -1 2 -1 0 0 2 -1 2 -1 1 0 2 -1 1 0 2 -1 2 -1 0 0 2 -1 1 0 4 -2 0 0 2 -1 1 -1 1 -1 2 -1 0 0 2 -1 1 -1 1 -1 2 -1 0 0 2 -1 1 -1 1 0 2 -1 0 0 2 -1 2 -1 1 0 2 -1 1 0 2 -1 2 -1 1 0 3 -1 1 0 2 -1 2 -1 1 0 3 -1 1 0 2 -1 2 -1 0 0 3 -1 1 0 2 -1 2 -1 0 0 3 -1 1 0 1 0 3 -1 0 0 3 -1c30,-9 62,-13 95,-13 94,0 180,38 241,100 29,29 54,64 71,103l-55 0c-14,-25 -31,-48 -51,-68 -53,-53 -126,-86 -207,-86 -33,0 -65,6 -95,16l-2 1 0 0 -2 1 -2 1 0 0 -2 1 -1 0 -1 0 -2 1 0 0 -1 1 -2 1 0 0 -2 1 -1 1 -1 0 -2 1 -1 0 -1 1 -2 1 0 0 -2 1 -1 1 -1 0 -2 1 -1 0 -1 1 -2 1 0 0 -2 1 -2 1 0 0 -2 1 -1 1 -1 0 -2 1 0 0 -1 1 -2 1 0 0 -2 1 -1 1 -1 0 -2 1 -1 0 -1 1 -2 1 0 0 -2 1 -1 1 0 0 -2 1 -1 1 -1 1 -2 1 0 0 -1 1 -1 1 0 0 -2 1 -1 1 -1 1 -2 1 0 0 -1 1 -2 1 0 0 -2 1 -1 1 -1 0 -2 1 -1 0 -1 1 -2 1 -2 1 -1 1 0 0 -2 1 -1 1 -1 1 -2 1 0 0 -1 1 -1 1 0 0 -2 1 -1 1 -1 1 -2 1 0 0 -1 1 -1 1 0 0 -1 1 -1 1 -1 1 -1 1 0 0 -1 1 -1 1 -1 1 -1 1 -1 1 0 0 -1 1 -1 1 0 0 -1 1 -1 1 -1 1 0 0 -1 1 -1 1 -1 1 0 0 -1 1 -1 1 0 0 -1 1 -1 1 -1 1 0 0 -1 1 -1 1 0 0 -1 1 -1 1 -1 1 0 0 -1 1 -1 1 -1 1 0 0 -1 1 -1 1 0 0 -1 1 -1 1 -1 1 0 0 -1 1 -1 1 0 1 0 0 -1 1 -1 1 0 0 -1 1 -1 1 -1 1 0 0 -1 1 -1 2 -1 1 -1 1 0 0 -1 1 -1 1 -1 1 -1 1 -1 1 0 0 0 1 -1 1 -1 1 -1 1 -1 1 0 1 0 0 -1 1 -1 1 0 0 0 1 -1 1 -1 1 0 0 -1 1 -1 1 0 1 0 1 -1 1 -1 1 0 0 -1 1c-21,39 -34,84 -35,132l223 0c9,-28 35,-48 66,-48 38,0 69,31 69,69 0,38 -31,69 -69,69 -31,0 -57,-20 -66,-48l-221 0c8,66 39,125 83,170 31,31 69,55 112,70l0 51zm95 92c-76,0 -148,-20 -210,-56l0 -58c60,41 132,65 210,65l0 49zm420 -420c0,116 -47,221 -123,297 -39,39 -86,71 -138,92l0 -54c39,-18 74,-43 104,-73 67,-67 109,-160 109,-263l49 0zm6368 421c52,21 99,53 138,92 28,28 52,60 71,95l-57 0c-14,-22 -31,-42 -49,-60 -30,-30 -65,-55 -104,-73l0 -54zm-159 810c-76,0 -148,-20 -210,-56l0 -58c60,41 132,65 210,65l0 49zm420 -420c0,116 -47,221 -123,297 -39,39 -86,71 -138,92l0 -54c39,-18 74,-43 104,-73 67,-67 109,-160 109,-263l49 0zm-6541 -2229l-4604 0 -21 21 4646 0 -21 -21zm1946 1612l-256 -256 -382 -382 -271 -271 -15 -15 -625 -625 -159 0 1548 1548 159 0zm-9285 -1100l1031 0 442 -448 -1031 0 -442 448zm82 153l676 0 368 373 -461 0 -162 -165 -214 -1 -207 -208z"/>
 </g>
</svg>
