<?xml version="1.0" encoding="UTF-8"?>
<!DOCTYPE svg PUBLIC "-//W3C//DTD SVG 1.1//EN" "http://www.w3.org/Graphics/SVG/1.1/DTD/svg11.dtd">
<!-- Creator: CorelDRAW 2018 (64-Bit Evaluation Version) -->
<svg xmlns="http://www.w3.org/2000/svg" xml:space="preserve" width="3.2699mm" height="4.7625mm" version="1.1" style="shape-rendering:geometricPrecision; text-rendering:geometricPrecision; image-rendering:optimizeQuality; fill-rule:evenodd; clip-rule:evenodd"
viewBox="0 0 252 366"
 xmlns:xlink="http://www.w3.org/1999/xlink">
 <defs>
  <style type="text/css">
   <![CDATA[
    .fil1 {fill:#21EBFF}
    .fil0 {fill:#21EBFF;fill-rule:nonzero}
   ]]>
  </style>
 </defs>
 <g id="Layer_x0020_1">
  <metadata id="CorelCorpID_0Corel-Layer"/>
  <g id="_2826598267408">
   <polygon class="fil0" points="252,222 226,222 226,245 165,183 226,121 226,144 252,144 "/>
   <path class="fil0" d="M249 64l-53 0 -116 121 116 121 53 0 -116 -121 116 -121zm-26 0m-85 61m0 121m85 61m-32 -61m0 -121"/>
   <polygon class="fil1" points="160,354 205,354 217,366 172,366 "/>
   <polygon class="fil1" points="199,347 153,347 138,330 183,330 "/>
   <polygon class="fil1" points="176,323 131,323 115,306 161,306 "/>
   <polygon class="fil1" points="154,299 109,299 93,282 138,282 "/>
   <polygon class="fil1" points="132,275 87,275 71,259 116,259 "/>
   <polygon class="fil1" points="109,252 64,252 49,235 94,235 "/>
   <polygon class="fil1" points="87,228 42,228 26,211 71,211 "/>
   <polygon class="fil1" points="65,204 20,204 0,183 15,167 60,167 45,183 "/>
   <polygon class="fil1" points="65,160 22,160 38,143 83,143 65,162 "/>
   <polygon class="fil1" points="86,136 44,136 60,119 105,119 86,140 "/>
   <polygon class="fil1" points="112,112 66,112 82,96 127,96 "/>
   <polygon class="fil1" points="134,89 89,89 105,72 150,72 "/>
   <polygon class="fil1" points="156,65 111,65 127,48 172,48 "/>
   <polygon class="fil1" points="178,41 133,41 149,24 194,24 178,42 "/>
   <polygon class="fil1" points="201,17 156,17 172,0 217,0 "/>
  </g>
 </g>
</svg>
