<?xml version="1.0" encoding="UTF-8"?>
<!DOCTYPE svg PUBLIC "-//W3C//DTD SVG 1.1//EN" "http://www.w3.org/Graphics/SVG/1.1/DTD/svg11.dtd">
<!-- Creator: CorelDRAW 2018 (64-Bit Evaluation Version) -->
<svg xmlns="http://www.w3.org/2000/svg" xml:space="preserve" width="34.5453mm" height="32.9873mm" version="1.1" style="shape-rendering:geometricPrecision; text-rendering:geometricPrecision; image-rendering:optimizeQuality; fill-rule:evenodd; clip-rule:evenodd"
viewBox="0 0 25994 24822"
 xmlns:xlink="http://www.w3.org/1999/xlink">
 <defs>
  <style type="text/css">
   <![CDATA[
    .fil0 {fill:#21EBFF}
   ]]>
  </style>
 </defs>
 <g id="Layer_x0020_1">
  <metadata id="CorelCorpID_0Corel-Layer"/>
  <g id="_2278716173744">
   <g>
    <path class="fil0" d="M0 8697l0 12825c0,871 595,1878 1247,2429 845,715 1812,871 2887,871l17725 0c1055,0 2094,-166 2909,-890 709,-630 1226,-1550 1226,-2515l0 -12773c0,-1357 -774,-2810 -1712,-3748l-685 -588c-806,-609 -1974,-1050 -2989,-1050l-210 0 -98 -185c-427,-799 -802,-1788 -1562,-2331 -879,-627 -1878,-891 -2944,-661 -471,102 -953,336 -1368,578 -222,129 -456,236 -678,365 -1110,645 -2279,1179 -3389,1825 -311,180 -507,341 -889,360 -2024,98 -4591,-370 -6411,683 -462,267 -1046,660 -1408,1052 -950,1027 -1652,2325 -1652,3753zm4471 -2154l5215 -2811c138,-75 268,-161 409,-232 1775,-884 3461,-2083 5295,-2823 1179,-475 3460,-35 3835,1359l93 348 -351 82c-169,40 -449,236 -613,317l-5887 3179c-1199,647 -988,580 -2338,580 -1425,0 -2850,0 -4275,0l-1384 0zm-3544 302c236,-1010 1476,-2109 2366,-2577 1359,-713 2649,-612 4126,-612l689 0 -407 555c-208,284 -514,332 -788,499 -243,149 -504,263 -757,414l-2208 1190c-389,200 -575,230 -999,292 -599,87 -998,351 -1518,626l-678 359 175 -747zm23637 388c-344,-181 -664,-383 -1035,-507 -415,-139 -869,-183 -1304,-183l-219 0 -1419 -2917 702 151c1266,273 2314,889 3118,1910 243,309 570,776 660,1158l174 746 -677 -357zm-4763 -4194c158,677 1110,2293 1481,2992l272 513 -9217 0 7361 -3948 103 444zm-2024 12539c0,2049 1549,3665 3613,3665l4155 0 0 349c0,1001 154,2294 -384,3184 -765,1267 -1834,1597 -3250,1597l-17830 0c-1416,0 -2485,-330 -3250,-1597 -200,-331 -384,-922 -384,-1307l0 -11521c0,-1678 1544,-2956 3164,-2956l18768 0c1620,0 3164,1278 3164,2956l0 2174 -4311 0c-1819,0 -3457,1638 -3457,3457zm449 156c0,-1672 1289,-3164 3008,-3164l4311 0 0 6225 -4155 0c-1681,0 -3164,-1351 -3164,-3060z"/>
   </g>
   <g>
    <path class="fil0" d="M20019 15578c0,455 64,743 400,1067 890,858 2239,170 2239,-1067 0,-318 -129,-587 -352,-810 -130,-129 -157,-170 -322,-253 -575,-290 -1155,-202 -1611,253 -223,223 -353,491 -353,810zm449 156c0,-1240 1741,-1240 1741,0 0,1090 -1741,1090 -1741,0z"/>
   </g>
  </g>
 </g>
</svg>
